<svg xmlns="http://www.w3.org/2000/svg" viewBox="0 0 132.94 132.94" style="enable-background:new 0 0 132.94 132.94" xml:space="preserve"><style>.st4{fill-rule:evenodd;clip-rule:evenodd;fill:#737476}</style><g id="color"><path d="M14.88 89.71 44.6 124.4c8.37 9.76 22.89 11.32 33.11 3.86-8.33 3.7-18.46 2.37-25.56-4.17L14.88 89.71z" style="fill-rule:evenodd;clip-rule:evenodd;fill:#f47e2b"/><path d="M43.23 14.88 8.54 44.6c-9.76 8.37-11.32 22.89-3.86 33.11-3.7-8.33-2.37-18.46 4.17-25.56l34.38-37.27z" style="fill-rule:evenodd;clip-rule:evenodd;fill:#239ed9"/><path d="M118.07 43.23 88.34 8.54C79.97-1.22 65.45-2.77 55.23 4.69c8.33-3.7 18.46-2.37 25.55 4.17l37.29 34.37z" style="fill-rule:evenodd;clip-rule:evenodd;fill:#b6d333"/><path d="m89.71 118.07 34.69-29.73c9.76-8.37 11.31-22.89 3.86-33.11 3.7 8.33 2.37 18.46-4.17 25.56l-34.38 37.28z" style="fill-rule:evenodd;clip-rule:evenodd;fill:#24b04c"/></g><path class="st4" d="m45.36 100.62-.57.59c-.47-.46-.93-.68-1.38-.68-.29 0-.53.09-.74.28-.2.19-.31.41-.31.66 0 .22.08.43.25.64.17.21.52.45 1.06.73.65.34 1.1.67 1.34.98.23.32.35.68.35 1.08 0 .56-.2 1.04-.59 1.43-.4.39-.89.59-1.49.59-.4 0-.77-.09-1.13-.26-.36-.17-.66-.41-.89-.71l.56-.63c.45.51.93.76 1.44.76.35 0 .65-.11.9-.34.25-.23.37-.49.37-.8a.98.98 0 0 0-.25-.67c-.17-.19-.54-.44-1.11-.73-.62-.32-1.04-.63-1.26-.94-.22-.31-.34-.66-.34-1.06 0-.52.18-.95.53-1.29.36-.34.81-.51 1.35-.51.63-.04 1.27.27 1.91.88zm1.86-3.56c.2 0 .37.07.51.22.14.14.21.32.21.52s-.07.37-.21.51c-.14.14-.31.22-.51.22s-.37-.07-.51-.22a.694.694 0 0 1-.21-.51c0-.2.07-.37.21-.52.15-.15.31-.22.51-.22zm-.44 2.81h.88v6.86h-.88v-6.86zm6.18.75-.57.59c-.47-.46-.93-.68-1.38-.68-.29 0-.32-.11-.53.07-.2.19-.52.62-.52.87 0 .22.08.43.25.64.17.21.52.45 1.06.73.65.34 1.1.67 1.34.98.23.32.35.68.35 1.08 0 .56-.2 1.04-.59 1.43-.4.39-.89.59-1.49.59-.4 0-.77-.09-1.13-.26-.36-.17-.66-.41-.89-.71l.56-.63c.45.51.93.76 1.44.76.35 0 .65-.11.9-.34.25-.23.37-.49.37-.8a.98.98 0 0 0-.25-.67c-.17-.19-.54-.44-1.11-.73-.62-.32-1.04-.63-1.26-.94-.22-.31-.34-.66-.34-1.06 0-.52.18-.95.53-1.29.36-.34.81-.51 1.35-.51.63-.04 1.27.27 1.91.88zm2.32-3.31h.88v2.56h1.39v.76h-1.39v6.1h-.88v-6.1h-1.2v-.76h1.2v-2.56zm9.4 7.15.74.39c-.25.48-.53.86-.85 1.15-.32.29-.68.51-1.08.67-.4.15-.85.23-1.36.23-1.12 0-2-.37-2.63-1.1-.63-.73-.95-1.56-.95-2.48 0-.87.27-1.64.81-2.32.68-.86 1.59-1.3 2.73-1.3 1.17 0 2.11.44 2.81 1.33.5.62.75 1.4.76 2.34h-6.2c.02.79.27 1.44.77 1.95s1.11.76 1.83.76c.35 0 .69-.06 1.02-.18.33-.12.82-.49 1.06-.69.23-.2.27-.31.54-.75zm.01-1.85c-.12-.47-.29-.85-.52-1.13-.23-.28-.53-.51-.9-.68-.37-.17-.76-.26-1.17-.26-.68 0-1.26.22-1.75.65-.36.32-.62.79-.81 1.42h5.15zm2.59-2.74h.88v1.19c.31-.44.62-.76.95-.96.45-.26.91-.39 1.41-.39.33 0 .65.06.95.2.3.13.54.3.73.52.19.22.35.53.49.93.29-.54.66-.95 1.1-1.23.44-.28.91-.42 1.42-.42.47 0 .89.12 1.26.36.36.24.63.57.81 1 .18.43.26 1.07.26 1.93v3.74h-.9V103c0-.74-.05-1.24-.16-1.52s-.28-.5-.54-.67c-.25-.17-.56-.25-.91-.25-.43 0-.82.13-1.17.38-.36.25-.61.59-.78 1.01-.16.42-.25 1.12-.25 2.1v2.68h-.88v-3.51c0-.83-.05-1.39-.16-1.69-.1-.3-.28-.53-.54-.71-.26-.18-.56-.27-.91-.27-.41 0-.79.12-1.15.37a2.2 2.2 0 0 0-.79.99c-.17.42-.26 1.05-.26 1.91v2.9l-.67-.21v-6.86l-.19.22zm18.95 0v6.86h-.88v-1.18c-.37.45-.78.79-1.24 1.01-.46.22-.96.34-1.51.34-.97 0-1.8-.35-2.48-1.05-.69-.7-1.03-1.56-1.03-2.56 0-.98.35-1.83 1.04-2.53.69-.7 1.52-1.05 2.5-1.05.56 0 1.07.12 1.53.36.45.24.85.59 1.2 1.07v-1.26h.87v-.01zm-3.53.69a2.668 2.668 0 0 0-2.35 1.37c-.25.43-.37.9-.37 1.38 0 .48.12.94.37 1.38.25.44.58.78 1 1.02.42.25.87.37 1.34.37.48 0 .94-.12 1.37-.36.43-.24.76-.57 1-.99.23-.41.35-.88.35-1.4 0-.79-.26-1.45-.78-1.98-.53-.53-1.17-.79-1.93-.79zm8.99.06-.57.59c-.47-.46-.93-.68-1.38-.68-.29 0-.53.09-.74.28-.2.19-.31.41-.31.66 0 .22.08.43.25.64.17.21.52.45 1.06.73.65.34 1.1.67 1.34.98.23.32.35.68.35 1.08 0 .56-.2 1.04-.59 1.43-.4.39-.89.59-1.49.59-.4 0-.77-.09-1.13-.26-.36-.17-.66-.41-.89-.71l.56-.63c.45.51.93.76 1.44.76.35 0 .65-.11.9-.34.25-.23.37-.49.37-.8a.98.98 0 0 0-.25-.67c-.17-.19-.54-.44-1.11-.73-.62-.32-1.04-.63-1.26-.94-.22-.31-.34-.66-.34-1.06 0-.52.18-.95.53-1.29.36-.34.81-.51 1.35-.51.63-.04 1.26.27 1.91.88z" id="txt2"/><path class="st4" d="M34.6 48.97c2.15 0 4.18.42 6.08 1.25 1.91.83 3.57 1.96 4.99 3.38 1.42 1.42 2.54 3.08 3.38 4.99.83 1.91 1.25 3.95 1.25 6.14 0 1.18-.12 2.31-.36 3.41l-.06.12H34.42l-3.89-6.2h11.56c-.57-1.7-1.51-3.1-2.83-4.2-1.32-1.09-2.87-1.64-4.65-1.64-1.09 0-2.13.22-3.1.67-.97.45-1.81 1.03-2.52 1.78s-1.27 1.64-1.67 2.67c-.41 1.03-.61 2.15-.61 3.37 0 .93.18 1.89.55 2.88.36.99.89 1.89 1.58 2.7a9.16 9.16 0 0 0 2.49 2.03c.97.55 2.07.82 3.28.82 1.09 0 2.1-.15 3.01-.46.91-.3 1.77-.98 2.59-2.04l.06-.06.12.06 7.06 3.1-.12.13c-1.46 2.04-3.11 3.43-5.36 4.58-2.25 1.15-4.84 1.92-7.36 1.92-2.19 0-4.25-.41-6.17-1.22-1.93-.81-3.6-1.93-5.02-3.35-1.42-1.42-2.54-3.08-3.38-4.99-.83-1.91-1.25-3.93-1.25-6.08 0-2.19.42-4.24 1.25-6.14.83-1.91 1.96-3.57 3.38-4.99 1.42-1.42 3.09-2.54 5.02-3.38 1.91-.84 3.97-1.25 6.16-1.25zm51.7.49V76.4c-.16 3.03-.03 3.07-1.52 6.36-.89 1.97-2.08 3.67-3.56 5.11-1.48 1.44-3.21 2.57-5.2 3.41-1.99.83-4.1 1.25-6.33 1.25-3 0-5.79-.74-8.36-2.22a16.57 16.57 0 0 1-6.11-6.05l-.06-.12.06-.06 6.69-2.92c.41.73.92 1.37 1.55 1.92.63.55 1.3.99 2.01 1.34.71.34 1.44.61 2.19.79.75.18 1.47.27 2.16.27 1.05 0 2.09-.22 3.1-.67a8.032 8.032 0 0 0 2.71-1.96c.79-.85 1.42-1.87 1.89-3.04.47-1.18.7-2.5.7-3.96V64.68c0-1.18-.23-2.29-.7-3.32-.47-1.03-1.09-1.93-1.89-2.68-.79-.76-1.7-1.36-2.74-1.8a8.196 8.196 0 0 0-3.31-.67c-1.18 0-2.28.22-3.31.67-1.03.46-1.94 1.05-2.71 1.81a8.09 8.09 0 0 0-1.82 2.7c-.45 1.03-.67 2.15-.67 3.34s.22 2.29.67 3.3a8.8 8.8 0 0 0 1.82 2.7 8.5 8.5 0 0 0 2.71 1.84c1.03.45 2.14.67 3.31.67 1.26 0 2.35-.22 3.28-.67h.06l.06.06L76.02 78l-.06.06c-1.99 1.61-4.44 2.41-7.36 2.41-2.19 0-4.26-.42-6.2-1.25-1.95-.83-3.63-1.96-5.05-3.38s-2.54-3.09-3.38-5.02c-.83-1.93-1.25-3.96-1.25-6.11 0-2.19.42-4.24 1.25-6.14.83-1.91 1.96-3.57 3.38-4.99 1.42-1.42 3.1-2.54 5.05-3.38 1.95-.83 4.01-1.25 6.2-1.25 4.14 0 7.34 1.55 9.61 4.64v-4.16h8.09v.03zm18.61 12.34c1.34.45 2.56.9 3.68 1.37 1.12.47 2.09 1.02 2.92 1.67.83.65 1.48 1.43 1.95 2.34.47.91.7 2 .7 3.25v.06c0 3.08-1.02 5.49-3.07 7.24-2.05 1.74-4.92 2.62-8.61 2.62-2.31 0-4.58-.4-6.81-1.2-2.23-.8-4.32-1.94-6.26-3.41l-.06-.06.06-.06 4.14-6.53.06.06c1.22 1.3 2.59 2.28 4.14 2.95 1.54.67 3.39.79 5.14.79 2.39 0 3.38-.56 3.38-2.09 0-.73-.39-1.28-1.16-1.64-.77-.36-1.68-.71-2.74-1.03-.2-.08-.4-.13-.58-.15a2.26 2.26 0 0 1-.58-.15c-1.22-.32-2.43-.68-3.65-1.05-1.22-.39-2.31-.91-3.28-1.58a8.44 8.44 0 0 1-2.4-2.54c-.63-1.03-.94-2.36-.94-3.97v-.12c0-1.42.26-2.72.79-3.88a8.772 8.772 0 0 1 2.25-3.04c.97-.84 2.15-1.5 3.53-1.97s2.9-.7 4.56-.7c1.95 0 3.91.29 5.9.88 1.99.59 3.83 1.45 5.53 2.58v.12l-3.71 6.75-.06-.06c-.93-.93-2.09-1.67-3.47-2.22-1.38-.55-2.84-.82-4.38-.82-.28 0-.61.02-.97.06-.36.04-.7.14-1 .3-.3.16-.56.38-.76.64-.2.26-.3.64-.3 1.13 0 .36.16.7.49 1 .32.3.74.59 1.25.85s1.07.52 1.7.76c.63.24 1.25.47 1.86.67.12 0 .25.02.4.06.11.04.24.08.36.12z" id="txt"/></svg>
